<?xml version="1.0" encoding="UTF-8" standalone="no"?>
<!-- Created with Inkscape (http://www.inkscape.org/) -->

<svg
   xmlns:dc="http://purl.org/dc/elements/1.1/"
   xmlns:cc="http://creativecommons.org/ns#"
   xmlns:rdf="http://www.w3.org/1999/02/22-rdf-syntax-ns#"
   xmlns:svg="http://www.w3.org/2000/svg"
   xmlns="http://www.w3.org/2000/svg"
   xmlns:sodipodi="http://sodipodi.sourceforge.net/DTD/sodipodi-0.dtd"
   xmlns:inkscape="http://www.inkscape.org/namespaces/inkscape"
   width="212"
   height="500"
   id="svg3190"
   version="1.1"
   inkscape:version="0.48.4 r9939"
   sodipodi:docname="shape.svg">
  <defs
     id="defs3192" />
  <sodipodi:namedview
     id="base"
     pagecolor="#ffffff"
     bordercolor="#666666"
     borderopacity="1.0"
     inkscape:pageopacity="0.0"
     inkscape:pageshadow="2"
     inkscape:zoom="1.708"
     inkscape:cx="173.91569"
     inkscape:cy="-14.051522"
     inkscape:document-units="px"
     inkscape:current-layer="layer1"
     showgrid="false"
     inkscape:window-width="1920"
     inkscape:window-height="1004"
     inkscape:window-x="0"
     inkscape:window-y="24"
     inkscape:window-maximized="1" />
  <metadata
     id="metadata3195">
    <rdf:RDF>
      <cc:Work
         rdf:about="">
        <dc:format>image/svg+xml</dc:format>
        <dc:type
           rdf:resource="http://purl.org/dc/dcmitype/StillImage" />
        <dc:title />
      </cc:Work>
    </rdf:RDF>
  </metadata>
  <g
     inkscape:label="Layer 1"
     inkscape:groupmode="layer"
     id="layer1"
     transform="translate(0,-552.36218)">
    <path
       transform="matrix(4.1669441,0,0,4.1669441,0,552.36218)"
       style="fill:none"
       d="m 23.932,100.663 11.332,6.542 m 0,0 11.334,-6.541 m 0,0 -5.383,-3.108 m 0,0 -5.957,3.437 m 0,0 -5.947,-3.436 m 0,0 -5.379,3.106"
       id="polygon20459"
       inkscape:connector-curvature="0"
       sodipodi:nodetypes="cccccccccccc" />
    <path
       transform="matrix(4.1669441,0,0,4.1669441,0,552.36218)"
       style="fill:none"
       d="m 23.932,78.886 11.332,6.543 m 0,0 11.334,-6.541 m 0,0 -5.383,-3.108 m 0,0 -5.957,3.437 m 0,0 -5.947,-3.435 m 0,0 -5.379,3.104"
       id="polygon20465"
       inkscape:connector-curvature="0"
       sodipodi:nodetypes="cccccccccccc" />
    <path
       style="fill:none"
       d="m 41.215,89.525 5.957,-3.421 m 0,0 0,-6.228 m 0,0 -11.338,6.543 m 0,0 0,13.093 m 0,0 5.381,-3.106 m 0,0 0,-6.881"
       id="polygon20467"
       inkscape:connector-curvature="0"
       sodipodi:nodetypes="cccccccccccc"
       transform="matrix(4.1669441,0,0,4.1669441,0,552.36218)" />
    <path
       transform="matrix(4.1669441,0,0,4.1669441,0,552.36218)"
       style="fill:none"
       d="m 23.356,79.875 0,6.229 m 0,0 5.953,3.425 m 0,0 -0.002,6.874 m 0,0 5.385,3.11 m 0,0 0,-13.094 m 0,0 -11.336,-6.544"
       id="polygon20469"
       inkscape:connector-curvature="0"
       sodipodi:nodetypes="cccccccccccc" />
    <path
       transform="matrix(4.1669441,0,0,4.1669441,0,552.36218)"
       style="fill:none"
       d="m 16.258,89.981 -5.949,-3.435 m 0,0 -5.379,3.106 m 0,0 11.332,6.542 m 0,0 11.334,-6.541 m 0,0 -5.383,-3.108 m 0,0 -5.955,3.436"
       id="polygon20525"
       inkscape:connector-curvature="0"
       sodipodi:nodetypes="cccccccccccc" />
    <path
       transform="matrix(4.1669441,0,0,4.1669441,0,552.36218)"
       style="fill:none"
       d="m 16.834,110.277 5.379,-3.107 m 0,0 0,-6.88 m 0,0 5.957,-3.421 m 0,0 0,-6.229 m 0,0 -11.336,6.543 m 0,0 0,13.094"
       id="polygon20527"
       inkscape:connector-curvature="0"
       sodipodi:nodetypes="cccccccccccc" />
    <path
       transform="matrix(4.1669441,0,0,4.1669441,0,552.36218)"
       style="fill:none"
       d="M 15.692,97.183 4.356,90.638 m 0,0 0,6.231 m 0,0 5.951,3.424 m 0,0 -0.002,6.874 m 0,0 5.387,3.11 m 0,0 0,-13.094"
       id="polygon20529"
       inkscape:connector-curvature="0"
       sodipodi:nodetypes="cccccccccccc" />
    <path
       transform="matrix(4.1669441,0,0,4.1669441,0,552.36218)"
       style="fill:none"
       d="m 23.932,57.111 11.332,6.542 m 0,0 11.334,-6.541 m 0,0 -5.383,-3.107 m 0,0 -5.957,3.436 m 0,0 -5.947,-3.435 m 0,0 -5.379,3.105"
       id="polygon20531"
       inkscape:connector-curvature="0"
       sodipodi:nodetypes="cccccccccccc" />
    <path
       transform="matrix(4.1669441,0,0,4.1669441,0,552.36218)"
       style="fill:none"
       d="m 41.215,67.75 5.957,-3.421 m 0,0 0,-6.228 m 0,0 -11.338,6.543 m 0,0 0,13.093 m 0,0 5.381,-3.107 m 0,0 0,-6.88"
       id="polygon20533"
       inkscape:connector-curvature="0"
       sodipodi:nodetypes="cccccccccccc" />
    <path
       transform="matrix(4.1669441,0,0,4.1669441,0,552.36218)"
       style="fill:none"
       d="m 23.356,58.099 0,6.23 m 0,0 5.953,3.424 m 0,0 -0.002,6.874 m 0,0 5.385,3.11 m 0,0 0,-13.093 m 0,0 -11.336,-6.545"
       id="polygon20535"
       inkscape:connector-curvature="0"
       sodipodi:nodetypes="cccccccccccc" />
    <path
       transform="matrix(4.1669441,0,0,4.1669441,0,552.36218)"
       style="fill:none"
       d="m 23.932,35.334 11.332,6.544 m 0,0 11.334,-6.542 m 0,0 -5.383,-3.107 m 0,0 -5.957,3.437 m 0,0 -5.947,-3.435 m 0,0 -5.379,3.103"
       id="polygon20537"
       inkscape:connector-curvature="0"
       sodipodi:nodetypes="cccccccccccc" />
    <path
       transform="matrix(4.1669441,0,0,4.1669441,0,552.36218)"
       style="fill:none"
       d="m 41.215,45.973 5.957,-3.42 m 0,0 0,-6.228 m 0,0 -11.338,6.543 m 0,0 0,13.092 m 0,0 5.381,-3.106 m 0,0 0,-6.881"
       id="polygon20539"
       inkscape:connector-curvature="0"
       sodipodi:nodetypes="cccccccccccc" />
    <path
       transform="matrix(4.1669441,0,0,4.1669441,0,552.36218)"
       style="fill:none"
       d="m 23.356,36.323 0,6.23 m 0,0 5.953,3.425 m 0,0 -0.002,6.873 m 0,0 5.385,3.109 m 0,0 0,-13.092 m 0,0 -11.336,-6.545"
       id="polygon20541"
       inkscape:connector-curvature="0"
       sodipodi:nodetypes="cccccccccccc" />
    <path
       transform="matrix(4.1669441,0,0,4.1669441,0,552.36218)"
       style="fill:none"
       d="M 16.258,68.206 10.309,64.77 m 0,0 -5.379,3.105 m 0,0 11.332,6.542 m 0,0 11.334,-6.541 m 0,0 -5.383,-3.107 m 0,0 -5.955,3.437"
       id="polygon20543"
       inkscape:connector-curvature="0"
       sodipodi:nodetypes="cccccccccccc" />
    <path
       transform="matrix(4.1669441,0,0,4.1669441,0,552.36218)"
       style="fill:none"
       d="m 16.834,88.501 5.379,-3.106 m 0,0 0,-6.881 m 0,0 5.957,-3.422 m 0,0 0,-6.227 m 0,0 -11.336,6.543 m 0,0 0,13.093"
       id="polygon20545"
       inkscape:connector-curvature="0"
       sodipodi:nodetypes="cccccccccccc" />
    <path
       transform="matrix(4.1669441,0,0,4.1669441,0,552.36218)"
       style="fill:none"
       d="M 15.692,75.408 4.356,68.863 m 0,0 0,6.229 m 0,0 5.951,3.426 m 0,0 -0.002,6.873 m 0,0 5.387,3.11 m 0,0 0,-13.093"
       id="polygon20547"
       inkscape:connector-curvature="0"
       sodipodi:nodetypes="cccccccccccc" />
    <path
       transform="matrix(4.1669441,0,0,4.1669441,0,552.36218)"
       style="fill:none"
       d="m 16.258,46.43 -5.949,-3.435 m 0,0 -5.379,3.104 m 0,0 11.332,6.543 m 0,0 11.334,-6.542 m 0,0 -5.383,-3.107 m 0,0 -5.955,3.437"
       id="polygon20549"
       inkscape:connector-curvature="0"
       sodipodi:nodetypes="cccccccccccc" />
    <path
       transform="matrix(4.1669441,0,0,4.1669441,0,552.36218)"
       style="fill:none"
       d="m 16.834,66.725 5.379,-3.106 m 0,0 0,-6.881 m 0,0 5.957,-3.421 m 0,0 0,-6.228 m 0,0 -11.336,6.542 m 0,0 0,13.094"
       id="polygon20551"
       inkscape:connector-curvature="0"
       sodipodi:nodetypes="cccccccccccc" />
    <path
       transform="matrix(4.1669441,0,0,4.1669441,0,552.36218)"
       style="fill:none"
       d="M 15.692,53.631 4.356,47.087 m 0,0 0,6.23 m 0,0 5.951,3.425 m 0,0 -0.002,6.873 m 0,0 5.387,3.11 m 0,0 0,-13.094"
       id="polygon20553"
       inkscape:connector-curvature="0"
       sodipodi:nodetypes="cccccccccccc" />
    <path
       transform="matrix(4.1669441,0,0,4.1669441,0,552.36218)"
       style="fill:none"
       d="m 41.215,10.454 -5.957,3.435 m 0,0 -5.947,-3.434 m 0,0 -5.379,3.104 m 0,0 11.332,6.543 m 0,0 11.334,-6.542 m 0,0 -5.383,-3.106"
       id="polygon20555"
       inkscape:connector-curvature="0"
       sodipodi:nodetypes="cccccccccccc" />
    <path
       transform="matrix(4.1669441,0,0,4.1669441,0,552.36218)"
       style="fill:none"
       d="m 41.215,24.198 5.957,-3.421 m 0,0 0,-6.228 m 0,0 -11.338,6.543 m 0,0 0,13.093 m 0,0 5.381,-3.106 m 0,0 0,-6.881"
       id="polygon20557"
       inkscape:connector-curvature="0"
       sodipodi:nodetypes="cccccccccccc" />
    <path
       transform="matrix(4.1669441,0,0,4.1669441,0,552.36218)"
       style="fill:none"
       d="m 23.356,14.547 0,6.23 m 0,0 5.953,3.425 m 0,0 -0.002,6.874 m 0,0 5.385,3.109 m 0,0 0,-13.093 m 0,0 -11.336,-6.545"
       id="polygon20559"
       inkscape:connector-curvature="0"
       sodipodi:nodetypes="cccccccccccc" />
    <path
       transform="matrix(4.1669441,0,0,4.1669441,0,552.36218)"
       style="fill:none"
       d="m 27.596,24.325 -5.383,-3.108 m 0,0 -5.955,3.437 m 0,0 -5.949,-3.436 m 0,0 -5.379,3.105 m 0,0 11.332,6.543 m 0,0 11.334,-6.541"
       id="polygon20561"
       inkscape:connector-curvature="0"
       sodipodi:nodetypes="cccccccccccc" />
    <path
       transform="matrix(4.1669441,0,0,4.1669441,0,552.36218)"
       style="fill:none"
       d="m 16.834,44.95 5.379,-3.108 m 0,0 0,-6.88 m 0,0 5.957,-3.421 m 0,0 0,-6.228 m 0,0 -11.336,6.544 m 0,0 0,13.093"
       id="polygon20563"
       inkscape:connector-curvature="0"
       sodipodi:nodetypes="cccccccccccc" />
    <path
       transform="matrix(4.1669441,0,0,4.1669441,0,552.36218)"
       style="fill:none"
       d="M 15.692,31.857 4.356,25.311 m 0,0 0,6.23 m 0,0 5.951,3.425 m 0,0 -0.002,6.873 m 0,0 5.387,3.111 m 0,0 0,-13.093"
       id="polygon20565"
       inkscape:connector-curvature="0"
       sodipodi:nodetypes="cccccccccccc" />
    <path
       transform="matrix(4.1669441,0,0,4.1669441,0,552.36218)"
       style="fill:none"
       d="m 28.17,3.538 -11.336,6.543 m 0,0 0,13.092 m 0,0 5.379,-3.106 m 0,0 0,-6.881 m 0,0 5.957,-3.42 m 0,0 0,-6.228"
       id="polygon20567"
       inkscape:connector-curvature="0"
       sodipodi:nodetypes="cccccccccccc" />
    <path
       transform="matrix(4.1669441,0,0,4.1669441,0,552.36218)"
       style="fill:none"
       d="m 10.305,20.063 5.387,3.11 m 0,0 0,-13.092 m 0,0 L 4.356,3.536 m 0,0 0,6.23 m 0,0 5.951,3.424 m 0,0 -0.002,6.873"
       id="polygon20569"
       inkscape:connector-curvature="0"
       sodipodi:nodetypes="cccccccccccc" />
    <path
       transform="matrix(4.1669441,0,0,4.1669441,0,552.36218)"
       style="fill:none"
       d="M 8.594,78.888 3.213,75.78 m 0,0 L 0,77.634 m 0,0 0,6.214 m 0,0 8.594,-4.96"
       id="polygon21395"
       inkscape:connector-curvature="0"
       sodipodi:nodetypes="cccccccc" />
    <path
       transform="matrix(4.1669441,0,0,4.1669441,0,552.36218)"
       style="fill:none"
       d="m 0,12.307 0,6.214 m 0,0 8.594,-4.961 m 0,0 -5.381,-3.106 m 0,0 L 0,12.307"
       id="polygon21397"
       inkscape:connector-curvature="0"
       sodipodi:nodetypes="cccccccc" />
    <path
       transform="matrix(4.1669441,0,0,4.1669441,0,552.36218)"
       style="fill:none"
       d="m 0,41.617 0,13.092 m 0,0 3.213,-1.855 m 0,0 0,-6.881 m 0,0 5.955,-3.42 m 0,0 0,-6.228 m 0,0 L 0,41.617"
       id="polygon21399"
       inkscape:connector-curvature="0"
       sodipodi:nodetypes="cccccccccccc" />
    <path
       transform="matrix(4.1669441,0,0,4.1669441,0,552.36218)"
       style="fill:none"
       d="m 0,19.841 0,13.093 m 0,0 3.213,-1.855 m 0,0 0,-6.881 m 0,0 5.955,-3.421 m 0,0 0,-6.228 m 0,0 L 0,19.841"
       id="polygon21401"
       inkscape:connector-curvature="0"
       sodipodi:nodetypes="cccccccccccc" />
    <path
       transform="matrix(4.1669441,0,0,4.1669441,0,552.36218)"
       style="fill:none"
       d="m 0,63.393 0,13.093 m 0,0 3.213,-1.856 m 0,0 0,-6.88 m 0,0 5.955,-3.421 m 0,0 0,-6.228 m 0,0 L 0,63.393"
       id="polygon21403"
       inkscape:connector-curvature="0"
       sodipodi:nodetypes="cccccccccccc" />
    <path
       transform="matrix(4.1669441,0,0,4.1669441,0,552.36218)"
       style="fill:none"
       d="M 8.594,35.336 3.213,32.229 m 0,0 L 0,34.083 m 0,0 0,6.214 m 0,0 8.594,-4.961"
       id="polygon21407"
       inkscape:connector-curvature="0"
       sodipodi:nodetypes="cccccccc" />
    <path
       transform="matrix(4.1669441,0,0,4.1669441,0,552.36218)"
       style="fill:none"
       d="m 51.025,7.219 0,-6.21 m 0,0 L 49.275,0 m 0,0 -1.925,0 m 0,0 -4.414,2.547 m 0,0 8.089,4.672"
       id="polygon21411"
       inkscape:connector-curvature="0"
       sodipodi:nodetypes="cccccccccc" />
    <path
       transform="matrix(4.1669441,0,0,4.1669441,0,552.36218)"
       style="fill:none"
       d="M 4.93,2.547 16.262,9.09 m 0,0 11.334,-6.542 m 0,0 L 23.179,0 m 0,0 -1.931,0 m 0,0 -4.99,2.878 m 0,0 L 11.271,0 m 0,0 -1.925,0 m 0,0 -4.416,2.547"
       id="polygon21413"
       inkscape:connector-curvature="0"
       sodipodi:nodetypes="cccccccccccccccc" />
    <path
       transform="matrix(4.1669441,0,0,4.1669441,0,552.36218)"
       style="fill:none"
       d="m 0,85.168 0,13.093 m 0,0 3.213,-1.855 m 0,0 0,-6.881 m 0,0 5.955,-3.421 m 0,0 0,-6.228 m 0,0 L 0,85.168"
       id="polygon21421"
       inkscape:connector-curvature="0"
       sodipodi:nodetypes="cccccccccccc" />
    <path
       transform="matrix(4.1669441,0,0,4.1669441,0,552.36218)"
       style="fill:none"
       d="M 8.594,100.664 3.213,97.556 m 0,0 L 0,99.41 m 0,0 0,6.214 m 0,0 8.594,-4.96"
       id="polygon21435"
       inkscape:connector-curvature="0"
       sodipodi:nodetypes="cccccccc" />
    <path
       transform="matrix(4.1669441,0,0,4.1669441,0,552.36218)"
       style="fill:none"
       d="M 8.594,57.112 3.213,54.005 m 0,0 L 0,55.859 m 0,0 0,6.213 m 0,0 8.594,-4.96"
       id="polygon21445"
       inkscape:connector-curvature="0"
       sodipodi:nodetypes="cccccccc" />
    <path
       transform="matrix(4.1669441,0,0,4.1669441,0,552.36218)"
       style="fill:none"
       d="m 48.313,21.218 -5.377,3.105 m 0,0 8.089,4.671 m 0,0 0,-6.21 m 0,0 -2.712,-1.566"
       id="polygon21549"
       inkscape:connector-curvature="0"
       sodipodi:nodetypes="cccccccc" />
    <path
       transform="matrix(4.1669441,0,0,4.1669441,0,552.36218)"
       style="fill:none"
       d="m 51.025,108.735 0,-13.094 m 0,0 -8.665,-5.003 m 0,0 0,6.231 m 0,0 5.951,3.424 m 0,0 -0.002,6.874 m 0,0 2.716,1.568"
       id="polygon21665"
       inkscape:connector-curvature="0"
       sodipodi:nodetypes="cccccccccccc" />
    <path
       transform="matrix(4.1669441,0,0,4.1669441,0,552.36218)"
       style="fill:none"
       d="m 48.313,64.77 -5.377,3.105 m 0,0 8.089,4.671 m 0,0 0,-6.21 m 0,0 -2.712,-1.566"
       id="polygon21679"
       inkscape:connector-curvature="0"
       sodipodi:nodetypes="cccccccc" />
    <path
       transform="matrix(4.1669441,0,0,4.1669441,0,552.36218)"
       style="fill:none"
       d="m 29.307,9.3 5.385,3.11 m 0,0 0,-12.41 m 0,0 -9.601,0 m 0,0 4.218,2.426 m 0,0 -0.002,6.874"
       id="polygon21681"
       inkscape:connector-curvature="0"
       sodipodi:nodetypes="cccccccccc" />
    <path
       transform="matrix(4.1669441,0,0,4.1669441,0,552.36218)"
       style="fill:none"
       d="m 51.025,21.631 0,-13.092 m 0,0 -8.665,-5.003 m 0,0 0,6.23 m 0,0 5.951,3.424 m 0,0 -0.002,6.873 m 0,0 2.716,1.568"
       id="polygon21683"
       inkscape:connector-curvature="0"
       sodipodi:nodetypes="cccccccccccc" />
    <path
       transform="matrix(4.1669441,0,0,4.1669441,0,552.36218)"
       style="fill:none"
       d="m 41.215,9.303 0,-6.881 m 0,0 L 45.435,0 m 0,0 -9.601,0 m 0,0 0,12.41 m 0,0 5.381,-3.107"
       id="polygon21685"
       inkscape:connector-curvature="0"
       sodipodi:nodetypes="cccccccccc" />
    <path
       transform="matrix(4.1669441,0,0,4.1669441,0,552.36218)"
       style="fill:none"
       d="m 3.213,9.303 0,-6.881 m 0,0 L 7.431,0 m 0,0 L 0,0 m 0,0 0,11.159 m 0,0 3.213,-1.856"
       id="polygon21687"
       inkscape:connector-curvature="0"
       sodipodi:nodetypes="cccccccccc" />
    <path
       transform="matrix(4.1669441,0,0,4.1669441,0,552.36218)"
       style="fill:none"
       d="m 51.025,43.408 0,-13.094 m 0,0 -8.665,-5.003 m 0,0 0,6.23 m 0,0 5.951,3.425 m 0,0 -0.002,6.873 m 0,0 2.716,1.569"
       id="polygon21693"
       inkscape:connector-curvature="0"
       sodipodi:nodetypes="cccccccccccc" />
    <path
       transform="matrix(4.1669441,0,0,4.1669441,0,552.36218)"
       style="fill:none"
       d="m 51.025,86.959 0,-13.093 m 0,0 -8.665,-5.003 m 0,0 0,6.229 m 0,0 5.951,3.426 m 0,0 -0.002,6.873 m 0,0 2.716,1.568"
       id="polygon21697"
       inkscape:connector-curvature="0"
       sodipodi:nodetypes="cccccccccccc" />
    <path
       transform="matrix(4.1669441,0,0,4.1669441,0,552.36218)"
       style="fill:none"
       d="m 51.025,65.183 0,-13.094 m 0,0 -8.665,-5.002 m 0,0 0,6.23 m 0,0 5.951,3.425 m 0,0 -0.002,6.873 m 0,0 2.716,1.568"
       id="polygon21699"
       inkscape:connector-curvature="0"
       sodipodi:nodetypes="cccccccccccc" />
    <path
       transform="matrix(4.1669441,0,0,4.1669441,0,552.36218)"
       style="fill:none"
       d="m 48.313,42.995 -5.377,3.104 m 0,0 8.089,4.672 m 0,0 0,-6.21 m 0,0 -2.712,-1.566"
       id="polygon21701"
       inkscape:connector-curvature="0"
       sodipodi:nodetypes="cccccccc" />
    <path
       transform="matrix(4.1669441,0,0,4.1669441,0,552.36218)"
       style="fill:none"
       d="m 48.313,86.546 -5.377,3.106 m 0,0 8.089,4.67 m 0,0 0,-6.21 m 0,0 -2.712,-1.566"
       id="polygon21703"
       inkscape:connector-curvature="0"
       sodipodi:nodetypes="cccccccc" />
  </g>
</svg>
