<?xml version="1.0" encoding="UTF-8" standalone="no"?>
<!-- Created with Inkscape (http://www.inkscape.org/) -->

<svg
   xmlns:dc="http://purl.org/dc/elements/1.1/"
   xmlns:cc="http://creativecommons.org/ns#"
   xmlns:rdf="http://www.w3.org/1999/02/22-rdf-syntax-ns#"
   xmlns:svg="http://www.w3.org/2000/svg"
   xmlns="http://www.w3.org/2000/svg"
   xmlns:sodipodi="http://sodipodi.sourceforge.net/DTD/sodipodi-0.dtd"
   xmlns:inkscape="http://www.inkscape.org/namespaces/inkscape"
   width="212"
   height="500"
   id="svg3190"
   version="1.1"
   inkscape:version="0.48.4 r9939"
   sodipodi:docname="shape.svg">
  <defs
     id="defs3192" />
  <sodipodi:namedview
     id="base"
     pagecolor="#ffffff"
     bordercolor="#666666"
     borderopacity="1.0"
     inkscape:pageopacity="0.0"
     inkscape:pageshadow="2"
     inkscape:zoom="1.2077384"
     inkscape:cx="465.74085"
     inkscape:cy="235.5416"
     inkscape:document-units="px"
     inkscape:current-layer="layer1"
     showgrid="false"
     inkscape:window-width="1920"
     inkscape:window-height="1004"
     inkscape:window-x="0"
     inkscape:window-y="24"
     inkscape:window-maximized="1" />
  <metadata
     id="metadata3195">
    <rdf:RDF>
      <cc:Work
         rdf:about="">
        <dc:format>image/svg+xml</dc:format>
        <dc:type
           rdf:resource="http://purl.org/dc/dcmitype/StillImage" />
        <dc:title />
      </cc:Work>
    </rdf:RDF>
  </metadata>
  <g
     inkscape:label="Layer 1"
     inkscape:groupmode="layer"
     id="layer1"
     transform="translate(0,-552.36218)">
    <path
       transform="matrix(4.1669441,0,0,4.1669441,0,552.36218)"
       style="fill:none"
       d="m 23.932,100.663 11.332,6.542 m 0,0 11.334,-6.541 m 0,0 -5.383,-3.108 m 0,0 -5.957,3.437 m 0,0 -5.947,-3.436 m 0,0 -5.379,3.106"
       id="polygon20459"
       inkscape:connector-curvature="0"
       sodipodi:nodetypes="cccccccccccc" />
    <path
       transform="matrix(4.1669441,0,0,4.1669441,0,552.36218)"
       style="fill:none"
       d="m 23.932,78.886 11.332,6.543 m 0,0 11.334,-6.541 m 0,0 -5.383,-3.108 m 0,0 -5.957,3.437 m 0,0 -5.947,-3.435 m 0,0 -5.379,3.104"
       id="polygon20465"
       inkscape:connector-curvature="0"
       sodipodi:nodetypes="cccccccccccc" />
    <path
       transform="matrix(4.1669441,0,0,4.1669441,0,552.36218)"
       style="fill:none"
       d="m 41.215,89.525 5.957,-3.421 m 0,0 0,-6.228 m 0,0 -11.338,6.543 m 0,0 0,13.093 m 0,0 5.381,-3.106 m 0,0 0,-6.881"
       id="polygon20467"
       inkscape:connector-curvature="0"
       sodipodi:nodetypes="cccccccccccc" />
    <path
       transform="matrix(4.1669441,0,0,4.1669441,0,552.36218)"
       style="fill:none"
       d="m 23.356,79.875 0,6.229 m 0,0 5.953,3.425 m 0,0 -0.002,6.874 m 0,0 5.385,3.11 m 0,0 0,-13.094 m 0,0 -11.336,-6.544"
       id="polygon20469"
       inkscape:connector-curvature="0"
       sodipodi:nodetypes="cccccccccccc" />
    <path
       transform="matrix(4.1669441,0,0,4.1669441,0,552.36218)"
       style="fill:none"
       d="m 16.258,89.981 -5.949,-3.435 m 0,0 -5.379,3.106 m 0,0 11.332,6.542 m 0,0 11.334,-6.541 m 0,0 -5.383,-3.108 m 0,0 -5.955,3.436"
       id="polygon20525"
       inkscape:connector-curvature="0"
       sodipodi:nodetypes="cccccccccccc" />
    <path
       transform="matrix(4.1669441,0,0,4.1669441,0,552.36218)"
       style="fill:none"
       d="m 16.834,110.277 5.379,-3.107 m 0,0 0,-6.88 m 0,0 5.957,-3.421 m 0,0 0,-6.229 m 0,0 -11.336,6.543 m 0,0 0,13.094"
       id="polygon20527"
       inkscape:connector-curvature="0"
       sodipodi:nodetypes="cccccccccccc" />
    <path
       transform="matrix(4.1669441,0,0,4.1669441,0,552.36218)"
       style="fill:none"
       d="M 15.692,97.183 4.356,90.638 m 0,0 0,6.231 m 0,0 5.951,3.424 m 0,0 -0.002,6.874 m 0,0 5.387,3.11 m 0,0 0,-13.094"
       id="polygon20529"
       inkscape:connector-curvature="0"
       sodipodi:nodetypes="cccccccccccc" />
    <path
       transform="matrix(4.1669441,0,0,4.1669441,0,552.36218)"
       style="fill:none"
       d="m 23.932,57.111 11.332,6.542 m 0,0 11.334,-6.541 m 0,0 -5.383,-3.107 m 0,0 -5.957,3.436 m 0,0 -5.947,-3.435 m 0,0 -5.379,3.105"
       id="polygon20531"
       inkscape:connector-curvature="0"
       sodipodi:nodetypes="cccccccccccc" />
    <path
       transform="matrix(4.1669441,0,0,4.1669441,0,552.36218)"
       style="fill:none"
       d="m 41.215,67.75 5.957,-3.421 m 0,0 0,-6.228 m 0,0 -11.338,6.543 m 0,0 0,13.093 m 0,0 5.381,-3.107 m 0,0 0,-6.88"
       id="polygon20533"
       inkscape:connector-curvature="0"
       sodipodi:nodetypes="cccccccccccc" />
    <path
       transform="matrix(4.1669441,0,0,4.1669441,0,552.36218)"
       style="fill:none"
       d="m 23.356,58.099 0,6.23 m 0,0 5.953,3.424 m 0,0 -0.002,6.874 m 0,0 5.385,3.11 m 0,0 0,-13.093 m 0,0 -11.336,-6.545"
       id="polygon20535"
       inkscape:connector-curvature="0"
       sodipodi:nodetypes="cccccccccccc" />
    <path
       transform="matrix(4.1669441,0,0,4.1669441,0,552.36218)"
       style="fill:none"
       d="m 23.932,35.334 11.332,6.544 m 0,0 11.334,-6.542 m 0,0 -5.383,-3.107 m 0,0 -5.957,3.437 m 0,0 -5.947,-3.435 m 0,0 -5.379,3.103"
       id="polygon20537"
       inkscape:connector-curvature="0"
       sodipodi:nodetypes="cccccccccccc" />
    <path
       transform="matrix(4.1669441,0,0,4.1669441,0,552.36218)"
       style="fill:none"
       d="m 41.215,45.973 5.957,-3.42 m 0,0 0,-6.228 m 0,0 -11.338,6.543 m 0,0 0,13.092 m 0,0 5.381,-3.106 m 0,0 0,-6.881"
       id="polygon20539"
       inkscape:connector-curvature="0"
       sodipodi:nodetypes="cccccccccccc" />
    <path
       transform="matrix(4.1669441,0,0,4.1669441,0,552.36218)"
       style="fill:none"
       d="m 23.356,36.323 0,6.23 m 0,0 5.953,3.425 m 0,0 -0.002,6.873 m 0,0 5.385,3.109 m 0,0 0,-13.092 m 0,0 -11.336,-6.545"
       id="polygon20541"
       inkscape:connector-curvature="0"
       sodipodi:nodetypes="cccccccccccc" />
    <path
       transform="matrix(4.1669441,0,0,4.1669441,0,552.36218)"
       style="fill:none"
       d="M 16.258,68.206 10.309,64.77 m 0,0 -5.379,3.105 m 0,0 11.332,6.542 m 0,0 11.334,-6.541 m 0,0 -5.383,-3.107 m 0,0 -5.955,3.437"
       id="polygon20543"
       inkscape:connector-curvature="0"
       sodipodi:nodetypes="cccccccccccc" />
    <path
       transform="matrix(4.1669441,0,0,4.1669441,0,552.36218)"
       style="fill:none"
       d="m 16.834,88.501 5.379,-3.106 m 0,0 0,-6.881 m 0,0 5.957,-3.422 m 0,0 0,-6.227 m 0,0 -11.336,6.543 m 0,0 0,13.093"
       id="polygon20545"
       inkscape:connector-curvature="0"
       sodipodi:nodetypes="cccccccccccc" />
    <path
       transform="matrix(4.1669441,0,0,4.1669441,0,552.36218)"
       style="fill:none"
       d="M 15.692,75.408 4.356,68.863 m 0,0 0,6.229 m 0,0 5.951,3.426 m 0,0 -0.002,6.873 m 0,0 5.387,3.11 m 0,0 0,-13.093"
       id="polygon20547"
       inkscape:connector-curvature="0"
       sodipodi:nodetypes="cccccccccccc" />
    <path
       transform="matrix(4.1669441,0,0,4.1669441,0,552.36218)"
       style="fill:none"
       d="m 16.258,46.43 -5.949,-3.435 m 0,0 -5.379,3.104 m 0,0 11.332,6.543 m 0,0 11.334,-6.542 m 0,0 -5.383,-3.107 m 0,0 -5.955,3.437"
       id="polygon20549"
       inkscape:connector-curvature="0"
       sodipodi:nodetypes="cccccccccccc" />
    <path
       transform="matrix(4.1669441,0,0,4.1669441,0,552.36218)"
       style="fill:none"
       d="m 16.834,66.725 5.379,-3.106 m 0,0 0,-6.881 m 0,0 5.957,-3.421 m 0,0 0,-6.228 m 0,0 -11.336,6.542 m 0,0 0,13.094"
       id="polygon20551"
       inkscape:connector-curvature="0"
       sodipodi:nodetypes="cccccccccccc" />
    <path
       transform="matrix(4.1669441,0,0,4.1669441,0,552.36218)"
       style="fill:none"
       d="M 15.692,53.631 4.356,47.087 m 0,0 0,6.23 m 0,0 5.951,3.425 m 0,0 -0.002,6.873 m 0,0 5.387,3.11 m 0,0 0,-13.094"
       id="polygon20553"
       inkscape:connector-curvature="0"
       sodipodi:nodetypes="cccccccccccc" />
    <path
       transform="matrix(4.1669441,0,0,4.1669441,0,552.36218)"
       style="fill:none"
       d="m 41.215,10.454 -5.957,3.435 m 0,0 -5.947,-3.434 m 0,0 -5.379,3.104 m 0,0 11.332,6.543 m 0,0 11.334,-6.542 m 0,0 -5.383,-3.106"
       id="polygon20555"
       inkscape:connector-curvature="0"
       sodipodi:nodetypes="cccccccccccc" />
    <path
       transform="matrix(4.1669441,0,0,4.1669441,0,552.36218)"
       style="fill:none"
       d="m 41.215,24.198 5.957,-3.421 m 0,0 0,-6.228 m 0,0 -11.338,6.543 m 0,0 0,13.093 m 0,0 5.381,-3.106 m 0,0 0,-6.881"
       id="polygon20557"
       inkscape:connector-curvature="0"
       sodipodi:nodetypes="cccccccccccc" />
    <path
       transform="matrix(4.1669441,0,0,4.1669441,0,552.36218)"
       style="fill:none"
       d="m 23.356,14.547 0,6.23 m 0,0 5.953,3.425 m 0,0 -0.002,6.874 m 0,0 5.385,3.109 m 0,0 0,-13.093 m 0,0 -11.336,-6.545"
       id="polygon20559"
       inkscape:connector-curvature="0"
       sodipodi:nodetypes="cccccccccccc" />
    <path
       transform="matrix(4.1669441,0,0,4.1669441,0,552.36218)"
       style="fill:none"
       d="m 27.596,24.325 -5.383,-3.108 m 0,0 -5.955,3.437 m 0,0 -5.949,-3.436 m 0,0 -5.379,3.105 m 0,0 11.332,6.543 m 0,0 11.334,-6.541"
       id="polygon20561"
       inkscape:connector-curvature="0"
       sodipodi:nodetypes="cccccccccccc" />
    <path
       transform="matrix(4.1669441,0,0,4.1669441,0,552.36218)"
       style="fill:none"
       d="m 16.834,44.95 5.379,-3.108 m 0,0 0,-6.88 m 0,0 5.957,-3.421 m 0,0 0,-6.228 m 0,0 -11.336,6.544 m 0,0 0,13.093"
       id="polygon20563"
       inkscape:connector-curvature="0"
       sodipodi:nodetypes="cccccccccccc" />
    <path
       transform="matrix(4.1669441,0,0,4.1669441,0,552.36218)"
       style="fill:none"
       d="M 15.692,31.857 4.356,25.311 m 0,0 0,6.23 m 0,0 5.951,3.425 m 0,0 -0.002,6.873 m 0,0 5.387,3.111 m 0,0 0,-13.093"
       id="polygon20565"
       inkscape:connector-curvature="0"
       sodipodi:nodetypes="cccccccccccc" />
    <path
       transform="matrix(4.1669441,0,0,4.1669441,0,552.36218)"
       style="fill:none"
       d="m 28.17,3.538 -11.336,6.543 m 0,0 0,13.092 m 0,0 5.379,-3.106 m 0,0 0,-6.881 m 0,0 5.957,-3.42 m 0,0 0,-6.228"
       id="polygon20567"
       inkscape:connector-curvature="0"
       sodipodi:nodetypes="cccccccccccc" />
    <path
       transform="matrix(4.1669441,0,0,4.1669441,0,552.36218)"
       style="fill:none"
       d="m 10.305,20.063 5.387,3.11 m 0,0 0,-13.092 m 0,0 L 4.356,3.536 m 0,0 0,6.23 m 0,0 5.951,3.424 m 0,0 -0.002,6.873"
       id="polygon20569"
       inkscape:connector-curvature="0"
       sodipodi:nodetypes="cccccccccccc" />
    <path
       transform="matrix(4.1669441,0,0,4.1669441,0,552.36218)"
       style="fill:none"
       d="M 8.594,78.888 3.213,75.78 m 0,0 L 0,77.634 m 0,0 0,6.214 m 0,0 8.594,-4.96"
       id="polygon21395"
       inkscape:connector-curvature="0"
       sodipodi:nodetypes="cccccccc" />
    <path
       transform="matrix(4.1669441,0,0,4.1669441,0,552.36218)"
       style="fill:none"
       d="m 0,12.307 0,6.214 m 0,0 8.594,-4.961 m 0,0 -5.381,-3.106 m 0,0 L 0,12.307"
       id="polygon21397"
       inkscape:connector-curvature="0"
       sodipodi:nodetypes="cccccccc" />
    <path
       transform="matrix(4.1669441,0,0,4.1669441,0,552.36218)"
       style="fill:none"
       d="m 0,41.617 0,13.092 m 0,0 3.213,-1.855 m 0,0 0,-6.881 m 0,0 5.955,-3.42 m 0,0 0,-6.228 m 0,0 L 0,41.617"
       id="polygon21399"
       inkscape:connector-curvature="0"
       sodipodi:nodetypes="cccccccccccc" />
    <path
       transform="matrix(4.1669441,0,0,4.1669441,0,552.36218)"
       style="fill:none"
       d="m 0,19.841 0,13.093 m 0,0 3.213,-1.855 m 0,0 0,-6.881 m 0,0 5.955,-3.421 m 0,0 0,-6.228 m 0,0 L 0,19.841"
       id="polygon21401"
       inkscape:connector-curvature="0"
       sodipodi:nodetypes="cccccccccccc" />
    <path
       transform="matrix(4.1669441,0,0,4.1669441,0,552.36218)"
       style="fill:none"
       d="m 0,63.393 0,13.093 m 0,0 3.213,-1.856 m 0,0 0,-6.88 m 0,0 5.955,-3.421 m 0,0 0,-6.228 m 0,0 L 0,63.393"
       id="polygon21403"
       inkscape:connector-curvature="0"
       sodipodi:nodetypes="cccccccccccc" />
    <path
       transform="matrix(4.1669441,0,0,4.1669441,0,552.36218)"
       style="fill:none"
       d="M 8.594,35.336 3.213,32.229 m 0,0 L 0,34.083 m 0,0 0,6.214 m 0,0 8.594,-4.961"
       id="polygon21407"
       inkscape:connector-curvature="0"
       sodipodi:nodetypes="cccccccc" />
    <path
       transform="matrix(4.1669441,0,0,4.1669441,0,552.36218)"
       style="fill:none"
       d="m 51.025,7.219 0,-6.21 m 0,0 L 49.275,0 m 0,0 -1.925,0 m 0,0 -4.414,2.547 m 0,0 8.089,4.672"
       id="polygon21411"
       inkscape:connector-curvature="0"
       sodipodi:nodetypes="cccccccccc" />
    <path
       transform="matrix(4.1669441,0,0,4.1669441,0,552.36218)"
       style="fill:none"
       d="M 4.93,2.547 16.262,9.09 m 0,0 11.334,-6.542 m 0,0 L 23.179,0 m 0,0 -1.931,0 m 0,0 -4.99,2.878 m 0,0 L 11.271,0 m 0,0 -1.925,0 m 0,0 -4.416,2.547"
       id="polygon21413"
       inkscape:connector-curvature="0"
       sodipodi:nodetypes="cccccccccccccccc" />
    <path
       transform="matrix(4.1669441,0,0,4.1669441,0,552.36218)"
       style="fill:none"
       d="m 0,85.168 0,13.093 m 0,0 3.213,-1.855 m 0,0 0,-6.881 m 0,0 5.955,-3.421 m 0,0 0,-6.228 m 0,0 L 0,85.168"
       id="polygon21421"
       inkscape:connector-curvature="0"
       sodipodi:nodetypes="cccccccccccc" />
    <path
       transform="matrix(4.1669441,0,0,4.1669441,0,552.36218)"
       style="fill:none"
       d="M 8.594,100.664 3.213,97.556 m 0,0 L 0,99.41 m 0,0 0,6.214 m 0,0 8.594,-4.96"
       id="polygon21435"
       inkscape:connector-curvature="0"
       sodipodi:nodetypes="cccccccc" />
    <path
       transform="matrix(4.1669441,0,0,4.1669441,0,552.36218)"
       style="fill:none"
       d="M 8.594,57.112 3.213,54.005 m 0,0 L 0,55.859 m 0,0 0,6.213 m 0,0 8.594,-4.96"
       id="polygon21445"
       inkscape:connector-curvature="0"
       sodipodi:nodetypes="cccccccc" />
    <path
       transform="matrix(4.1669441,0,0,4.1669441,0,552.36218)"
       style="fill:none"
       d="m 48.313,21.218 -5.377,3.105 m 0,0 8.089,4.671 m 0,0 0,-6.21 m 0,0 -2.712,-1.566"
       id="polygon21549"
       inkscape:connector-curvature="0"
       sodipodi:nodetypes="cccccccc" />
    <path
       transform="matrix(4.1669441,0,0,4.1669441,0,552.36218)"
       style="fill:none"
       d="m 51.025,108.735 0,-13.094 m 0,0 -8.665,-5.003 m 0,0 0,6.231 m 0,0 5.951,3.424 m 0,0 -0.002,6.874 m 0,0 2.716,1.568"
       id="polygon21665"
       inkscape:connector-curvature="0"
       sodipodi:nodetypes="cccccccccccc" />
    <path
       transform="matrix(4.1669441,0,0,4.1669441,0,552.36218)"
       style="fill:none"
       d="m 48.313,64.77 -5.377,3.105 m 0,0 8.089,4.671 m 0,0 0,-6.21 m 0,0 -2.712,-1.566"
       id="polygon21679"
       inkscape:connector-curvature="0"
       sodipodi:nodetypes="cccccccc" />
    <path
       transform="matrix(4.1669441,0,0,4.1669441,0,552.36218)"
       style="fill:none"
       d="m 29.307,9.3 5.385,3.11 m 0,0 0,-12.41 m 0,0 -9.601,0 m 0,0 4.218,2.426 m 0,0 -0.002,6.874"
       id="polygon21681"
       inkscape:connector-curvature="0"
       sodipodi:nodetypes="cccccccccc" />
    <path
       transform="matrix(4.1669441,0,0,4.1669441,0,552.36218)"
       style="fill:none"
       d="m 51.025,21.631 0,-13.092 m 0,0 -8.665,-5.003 m 0,0 0,6.23 m 0,0 5.951,3.424 m 0,0 -0.002,6.873 m 0,0 2.716,1.568"
       id="polygon21683"
       inkscape:connector-curvature="0"
       sodipodi:nodetypes="cccccccccccc" />
    <path
       transform="matrix(4.1669441,0,0,4.1669441,0,552.36218)"
       style="fill:none"
       d="m 41.215,9.303 0,-6.881 m 0,0 L 45.435,0 m 0,0 -9.601,0 m 0,0 0,12.41 m 0,0 5.381,-3.107"
       id="polygon21685"
       inkscape:connector-curvature="0"
       sodipodi:nodetypes="cccccccccc" />
    <path
       transform="matrix(4.1669441,0,0,4.1669441,0,552.36218)"
       style="fill:none"
       d="m 3.213,9.303 0,-6.881 m 0,0 L 7.431,0 m 0,0 L 0,0 m 0,0 0,11.159 m 0,0 3.213,-1.856"
       id="polygon21687"
       inkscape:connector-curvature="0"
       sodipodi:nodetypes="cccccccccc" />
    <path
       transform="matrix(4.1669441,0,0,4.1669441,0,552.36218)"
       style="fill:none"
       d="m 51.025,43.408 0,-13.094 m 0,0 -8.665,-5.003 m 0,0 0,6.23 m 0,0 5.951,3.425 m 0,0 -0.002,6.873 m 0,0 2.716,1.569"
       id="polygon21693"
       inkscape:connector-curvature="0"
       sodipodi:nodetypes="cccccccccccc" />
    <path
       transform="matrix(4.1669441,0,0,4.1669441,0,552.36218)"
       style="fill:none"
       d="m 51.025,86.959 0,-13.093 m 0,0 -8.665,-5.003 m 0,0 0,6.229 m 0,0 5.951,3.426 m 0,0 -0.002,6.873 m 0,0 2.716,1.568"
       id="polygon21697"
       inkscape:connector-curvature="0"
       sodipodi:nodetypes="cccccccccccc" />
    <path
       transform="matrix(4.1669441,0,0,4.1669441,0,552.36218)"
       style="fill:none"
       d="m 51.025,65.183 0,-13.094 m 0,0 -8.665,-5.002 m 0,0 0,6.23 m 0,0 5.951,3.425 m 0,0 -0.002,6.873 m 0,0 2.716,1.568"
       id="polygon21699"
       inkscape:connector-curvature="0"
       sodipodi:nodetypes="cccccccccccc" />
    <path
       transform="matrix(4.1669441,0,0,4.1669441,0,552.36218)"
       style="fill:none"
       d="m 48.313,42.995 -5.377,3.104 m 0,0 8.089,4.672 m 0,0 0,-6.21 m 0,0 -2.712,-1.566"
       id="polygon21701"
       inkscape:connector-curvature="0"
       sodipodi:nodetypes="cccccccc" />
    <path
       transform="matrix(4.1669441,0,0,4.1669441,0,552.36218)"
       style="fill:none"
       d="m 48.313,86.546 -5.377,3.106 m 0,0 8.089,4.67 m 0,0 0,-6.21 m 0,0 -2.712,-1.566"
       id="polygon21703"
       inkscape:connector-curvature="0"
       sodipodi:nodetypes="cccccccc" />
    <path
       sodipodi:nodetypes="cccccccccccc"
       inkscape:connector-curvature="0"
       id="path7056"
       d="m 99.723306,1471.8193 47.219814,27.2601 m 0,0 47.22814,-27.256 m 0,0 -22.43066,-12.9508 m 0,0 -24.82248,14.3218 m 0,0 -24.78082,-14.3176 m 0,0 -22.413994,12.9425"
       style="fill:none" />
    <path
       sodipodi:nodetypes="cccccccccccc"
       inkscape:connector-curvature="0"
       id="path7058"
       d="m 99.723306,1381.0757 47.219814,27.2644 m 0,0 47.22814,-27.256 m 0,0 -22.43066,-12.9509 m 0,0 -24.82248,14.3218 m 0,0 -24.78082,-14.3135 m 0,0 -22.413994,12.9342"
       style="fill:none" />
    <path
       sodipodi:nodetypes="cccccccccccc"
       inkscape:connector-curvature="0"
       id="path7060"
       d="m 171.7406,1425.4079 24.82249,-14.2552 m 0,0 0,-25.9517 m 0,0 -47.24482,27.2643 m 0,0 0,54.5578 m 0,0 22.42233,-12.9425 m 0,0 0,-28.6727"
       style="fill:none" />
    <path
       sodipodi:nodetypes="cccccccccccc"
       inkscape:connector-curvature="0"
       id="path7062"
       d="m 97.323146,1385.1968 0,25.9559 m 0,0 24.805814,14.2718 m 0,0 -0.008,28.6436 m 0,0 22.43899,12.9592 m 0,0 0,-54.562 m 0,0 -47.236474,-27.2685"
       style="fill:none" />
    <path
       sodipodi:nodetypes="cccccccccccc"
       inkscape:connector-curvature="0"
       id="path7064"
       d="m 67.746177,1427.308 -24.78915,-14.3135 m 0,0 -22.413993,12.9426 m 0,0 47.219811,27.2601 m 0,0 47.228145,-27.256 m 0,0 -22.430661,-12.9508 m 0,0 -24.814152,14.3176"
       style="fill:none" />
    <path
       sodipodi:nodetypes="cccccccccccc"
       inkscape:connector-curvature="0"
       id="path7066"
       d="m 70.146337,1511.8803 22.413992,-12.9467 m 0,0 0,-28.6686 m 0,0 24.822491,-14.2551 m 0,0 0,-25.9559 m 0,0 -47.236483,27.2643 m 0,0 0,54.562"
       style="fill:none" />
    <path
       sodipodi:nodetypes="cccccccccccc"
       inkscape:connector-curvature="0"
       id="path7068"
       d="m 65.387687,1457.3183 -47.236479,-27.2726 m 0,0 0,25.9642 m 0,0 24.797485,14.2676 m 0,0 -0.0083,28.6436 m 0,0 22.447328,12.9592 m 0,0 0,-54.562"
       style="fill:none" />
    <path
       sodipodi:nodetypes="cccccccccccc"
       inkscape:connector-curvature="0"
       id="path7070"
       d="m 99.723306,1290.3405 47.219814,27.2602 m 0,0 47.22814,-27.256 m 0,0 -22.43066,-12.9467 m 0,0 -24.82248,14.3176 m 0,0 -24.78082,-14.3134 m 0,0 -22.413994,12.9383"
       style="fill:none" />
    <path
       sodipodi:nodetypes="cccccccccccc"
       inkscape:connector-curvature="0"
       id="path7072"
       d="m 171.7406,1334.6726 24.82249,-14.2551 m 0,0 0,-25.9517 m 0,0 -47.24482,27.2643 m 0,0 0,54.5578 m 0,0 22.42233,-12.9467 m 0,0 0,-28.6686"
       style="fill:none" />
    <path
       sodipodi:nodetypes="cccccccccccc"
       inkscape:connector-curvature="0"
       id="path7074"
       d="m 97.323146,1294.4575 0,25.96 m 0,0 24.805814,14.2676 m 0,0 -0.008,28.6436 m 0,0 22.43899,12.9592 m 0,0 0,-54.5578 m 0,0 -47.236474,-27.2726"
       style="fill:none" />
    <path
       sodipodi:nodetypes="cccccccccccc"
       inkscape:connector-curvature="0"
       id="path7076"
       d="m 99.723306,1199.597 47.219814,27.2685 m 0,0 47.22814,-27.2602 m 0,0 -22.43066,-12.9467 m 0,0 -24.82248,14.3218 m 0,0 -24.78082,-14.3134 m 0,0 -22.413994,12.93"
       style="fill:none" />
    <path
       sodipodi:nodetypes="cccccccccccc"
       inkscape:connector-curvature="0"
       id="path7078"
       d="m 171.7406,1243.9291 24.82249,-14.251 m 0,0 0,-25.9517 m 0,0 -47.24482,27.2643 m 0,0 0,54.5537 m 0,0 22.42233,-12.9426 m 0,0 0,-28.6727"
       style="fill:none" />
    <path
       sodipodi:nodetypes="cccccccccccc"
       inkscape:connector-curvature="0"
       id="path7080"
       d="m 97.323146,1203.7181 0,25.96 m 0,0 24.805814,14.2718 m 0,0 -0.008,28.6394 m 0,0 22.43899,12.9551 m 0,0 0,-54.5537 m 0,0 -47.236474,-27.2726"
       style="fill:none" />
    <path
       sodipodi:nodetypes="cccccccccccc"
       inkscape:connector-curvature="0"
       id="path7082"
       d="m 67.746177,1336.5728 -24.78915,-14.3177 m 0,0 -22.413993,12.9384 m 0,0 47.219811,27.2602 m 0,0 47.228145,-27.256 m 0,0 -22.430661,-12.9467 m 0,0 -24.814152,14.3218"
       style="fill:none" />
    <path
       sodipodi:nodetypes="cccccccccccc"
       inkscape:connector-curvature="0"
       id="path7084"
       d="m 70.146337,1421.1409 22.413992,-12.9425 m 0,0 0,-28.6728 m 0,0 24.822491,-14.2593 m 0,0 0,-25.9475 m 0,0 -47.236483,27.2643 m 0,0 0,54.5578"
       style="fill:none" />
    <path
       sodipodi:nodetypes="cccccccccccc"
       inkscape:connector-curvature="0"
       id="path7086"
       d="m 65.387687,1366.5831 -47.236479,-27.2727 m 0,0 0,25.9559 m 0,0 24.797485,14.276 m 0,0 -0.0083,28.6394 m 0,0 22.447328,12.9592 m 0,0 0,-54.5578"
       style="fill:none" />
    <path
       sodipodi:nodetypes="cccccccccccc"
       inkscape:connector-curvature="0"
       id="path7088"
       d="m 67.746177,1245.8334 -24.78915,-14.3135 m 0,0 -22.413993,12.9342 m 0,0 47.219811,27.2644 m 0,0 47.228145,-27.2602 m 0,0 -22.430661,-12.9467 m 0,0 -24.814152,14.3218"
       style="fill:none" />
    <path
       sodipodi:nodetypes="cccccccccccc"
       inkscape:connector-curvature="0"
       id="path7090"
       d="m 70.146337,1330.4015 22.413992,-12.9425 m 0,0 0,-28.6728 m 0,0 24.822491,-14.2551 m 0,0 0,-25.9517 m 0,0 -47.236483,27.2602 m 0,0 0,54.5619"
       style="fill:none" />
    <path
       sodipodi:nodetypes="cccccccccccc"
       inkscape:connector-curvature="0"
       id="path7092"
       d="m 65.387687,1275.8396 -47.236479,-27.2685 m 0,0 0,25.96 m 0,0 24.797485,14.2718 m 0,0 -0.0083,28.6394 m 0,0 22.447328,12.9592 m 0,0 0,-54.5619"
       style="fill:none" />
    <path
       sodipodi:nodetypes="cccccccccccc"
       inkscape:connector-curvature="0"
       id="path7094"
       d="m 171.7406,1095.9234 -24.82248,14.3135 m 0,0 -24.78082,-14.3093 m 0,0 -22.413994,12.9342 m 0,0 47.219814,27.2643 m 0,0 47.22814,-27.2602 m 0,0 -22.43066,-12.9425"
       style="fill:none" />
    <path
       sodipodi:nodetypes="cccccccccccc"
       inkscape:connector-curvature="0"
       id="path7096"
       d="m 171.7406,1153.1939 24.82249,-14.2551 m 0,0 0,-25.9517 m 0,0 -47.24482,27.2643 m 0,0 0,54.5578 m 0,0 22.42233,-12.9426 m 0,0 0,-28.6727"
       style="fill:none" />
    <path
       sodipodi:nodetypes="cccccccccccc"
       inkscape:connector-curvature="0"
       id="path7098"
       d="m 97.323146,1112.9787 0,25.9601 m 0,0 24.805814,14.2718 m 0,0 -0.008,28.6435 m 0,0 22.43899,12.9551 m 0,0 0,-54.5578 m 0,0 -47.236474,-27.2727"
       style="fill:none" />
    <path
       sodipodi:nodetypes="cccccccccccc"
       inkscape:connector-curvature="0"
       id="path7100"
       d="m 114.99099,1153.7231 -22.430661,-12.9509 m 0,0 -24.814152,14.3218 m 0,0 -24.78915,-14.3176 m 0,0 -22.413993,12.9384 m 0,0 47.219811,27.2643 m 0,0 47.228145,-27.256"
       style="fill:none" />
    <path
       sodipodi:nodetypes="cccccccccccc"
       inkscape:connector-curvature="0"
       id="path7102"
       d="m 70.146337,1239.6663 22.413992,-12.9508 m 0,0 0,-28.6686 m 0,0 24.822491,-14.2551 m 0,0 0,-25.9518 m 0,0 -47.236483,27.2685 m 0,0 0,54.5578"
       style="fill:none" />
    <path
       sodipodi:nodetypes="cccccccccccc"
       inkscape:connector-curvature="0"
       id="path7104"
       d="m 65.387687,1185.1085 -47.236479,-27.2768 m 0,0 0,25.9601 m 0,0 24.797485,14.2717 m 0,0 -0.0083,28.6394 m 0,0 22.447328,12.9634 m 0,0 0,-54.5578"
       style="fill:none" />
    <path
       sodipodi:nodetypes="cccccccccccc"
       inkscape:connector-curvature="0"
       id="path7106"
       d="m 117.38282,1067.1048 -47.236483,27.2643 m 0,0 0,54.5537 m 0,0 22.413992,-12.9425 m 0,0 0,-28.6728 m 0,0 24.822491,-14.2509 m 0,0 0,-25.9518"
       style="fill:none" />
    <path
       sodipodi:nodetypes="cccccccccccc"
       inkscape:connector-curvature="0"
       id="path7108"
       d="m 42.940359,1135.9636 22.447328,12.9592 m 0,0 0,-54.5537 m 0,0 -47.236479,-27.2726 m 0,0 0,25.9601 m 0,0 24.797485,14.2676 m 0,0 -0.0083,28.6394"
       style="fill:none" />
    <path
       sodipodi:nodetypes="cccccccc"
       inkscape:connector-curvature="0"
       id="path7110"
       d="m 35.810718,1381.0841 -22.422327,-12.9509 m 0,0 L 0,1375.8587 m 0,0 0,25.8934 m 0,0 35.810718,-20.668"
       style="fill:none" />
    <path
       sodipodi:nodetypes="cccccccc"
       inkscape:connector-curvature="0"
       id="path7112"
       d="m 0,1103.6448 0,25.8933 m 0,0 35.810718,-20.6722 m 0,0 -22.422327,-12.9425 m 0,0 L 0,1103.6448"
       style="fill:none" />
    <path
       sodipodi:nodetypes="cccccccccccc"
       inkscape:connector-curvature="0"
       id="path7114"
       d="m 0,1225.7779 0,54.5536 m 0,0 13.388391,-7.7297 m 0,0 0,-28.6727 m 0,0 24.814153,-14.251 m 0,0 0,-25.9517 m 0,0 L 0,1225.7779"
       style="fill:none" />
    <path
       sodipodi:nodetypes="cccccccccccc"
       inkscape:connector-curvature="0"
       id="path7116"
       d="m 0,1135.0385 0,54.5578 m 0,0 13.388391,-7.7297 m 0,0 0,-28.6727 m 0,0 24.814153,-14.2551 m 0,0 0,-25.9518 m 0,0 L 0,1135.0385"
       style="fill:none" />
    <path
       sodipodi:nodetypes="cccccccccccc"
       inkscape:connector-curvature="0"
       id="path7118"
       d="m 0,1316.5173 0,54.5578 m 0,0 13.388391,-7.7339 m 0,0 0,-28.6686 m 0,0 24.814153,-14.2551 m 0,0 0,-25.9517 m 0,0 L 0,1316.5173"
       style="fill:none" />
    <path
       sodipodi:nodetypes="cccccccc"
       inkscape:connector-curvature="0"
       id="path7120"
       d="m 35.810718,1199.6053 -22.422327,-12.9467 m 0,0 L 0,1194.3841 m 0,0 0,25.8934 m 0,0 35.810718,-20.6722"
       style="fill:none" />
    <path
       sodipodi:nodetypes="cccccccccc"
       inkscape:connector-curvature="0"
       id="path7122"
       d="m 212.61832,1082.4433 0,-25.8767 m 0,0 -7.29215,-4.2044 m 0,0 -8.02137,0 m 0,0 -18.39289,10.6132 m 0,0 33.70641,19.4679"
       style="fill:none" />
    <path
       sodipodi:nodetypes="cccccccccccccccc"
       inkscape:connector-curvature="0"
       id="path7124"
       d="m 20.543034,1062.9754 47.219811,27.2643 m 0,0 47.228145,-27.2601 m 0,0 -18.405393,-10.6174 m 0,0 -8.046369,0 m 0,0 -20.793051,11.9924 m 0,0 -20.78055,-11.9924 m 0,0 -8.021367,0 m 0,0 -18.401226,10.6132"
       style="fill:none" />
    <path
       sodipodi:nodetypes="cccccccccccc"
       inkscape:connector-curvature="0"
       id="path7126"
       d="m 0,1407.2525 0,54.5578 m 0,0 13.388391,-7.7297 m 0,0 0,-28.6727 m 0,0 24.814153,-14.2552 m 0,0 0,-25.9517 m 0,0 L 0,1407.2525"
       style="fill:none" />
    <path
       sodipodi:nodetypes="cccccccc"
       inkscape:connector-curvature="0"
       id="path7128"
       d="m 35.810718,1471.8234 -22.422327,-12.9508 m 0,0 L 0,1466.5981 m 0,0 0,25.8934 m 0,0 35.810718,-20.6681"
       style="fill:none" />
    <path
       sodipodi:nodetypes="cccccccc"
       inkscape:connector-curvature="0"
       id="path7130"
       d="M 35.810718,1290.3447 13.388391,1277.398 m 0,0 L 0,1285.1235 m 0,0 0,25.8892 m 0,0 35.810718,-20.668"
       style="fill:none" />
    <path
       sodipodi:nodetypes="cccccccc"
       inkscape:connector-curvature="0"
       id="path7132"
       d="m 201.31757,1140.7764 -22.40566,12.9384 m 0,0 33.70641,19.4638 m 0,0 0,-25.8768 m 0,0 -11.30075,-6.5254"
       style="fill:none" />
    <path
       sodipodi:nodetypes="cccccccccccc"
       inkscape:connector-curvature="0"
       id="path7134"
       d="m 212.61832,1505.4548 0,-54.5619 m 0,0 -36.10657,-20.8472 m 0,0 0,25.9642 m 0,0 24.79749,14.2676 m 0,0 -0.008,28.6436 m 0,0 11.31742,6.5337"
       style="fill:none" />
    <path
       sodipodi:nodetypes="cccccccc"
       inkscape:connector-curvature="0"
       id="path7136"
       d="m 201.31757,1322.2551 -22.40566,12.9384 m 0,0 33.70641,19.4638 m 0,0 0,-25.8767 m 0,0 -11.30075,-6.5255"
       style="fill:none" />
    <path
       sodipodi:nodetypes="cccccccccc"
       inkscape:connector-curvature="0"
       id="path7138"
       d="m 122.12063,1091.1148 22.43899,12.9592 m 0,0 0,-51.7118 m 0,0 -40.00683,0 m 0,0 17.57617,10.109 m 0,0 -0.008,28.6436"
       style="fill:none" />
    <path
       sodipodi:nodetypes="cccccccccccc"
       inkscape:connector-curvature="0"
       id="path7140"
       d="m 212.61832,1142.4973 0,-54.5536 m 0,0 -36.10657,-20.8472 m 0,0 0,25.9601 m 0,0 24.79749,14.2676 m 0,0 -0.008,28.6394 m 0,0 11.31742,6.5337"
       style="fill:none" />
    <path
       sodipodi:nodetypes="cccccccccc"
       inkscape:connector-curvature="0"
       id="path7142"
       d="m 171.7406,1091.1273 0,-28.6728 m 0,0 17.58451,-10.0923 m 0,0 -40.00684,0 m 0,0 0,51.7118 m 0,0 22.42233,-12.9467"
       style="fill:none" />
    <path
       sodipodi:nodetypes="cccccccccc"
       inkscape:connector-curvature="0"
       id="path7144"
       d="m 13.388391,1091.1273 0,-28.6728 m 0,0 17.576171,-10.0923 m 0,0 -30.964562,0 m 0,0 0,46.4989 m 0,0 13.388391,-7.7338"
       style="fill:none" />
    <path
       sodipodi:nodetypes="cccccccccccc"
       inkscape:connector-curvature="0"
       id="path7146"
       d="m 212.61832,1233.2409 0,-54.562 m 0,0 -36.10657,-20.8472 m 0,0 0,25.9601 m 0,0 24.79749,14.2718 m 0,0 -0.008,28.6394 m 0,0 11.31742,6.5379"
       style="fill:none" />
    <path
       sodipodi:nodetypes="cccccccccccc"
       inkscape:connector-curvature="0"
       id="path7148"
       d="m 212.61832,1414.7155 0,-54.5578 m 0,0 -36.10657,-20.8473 m 0,0 0,25.956 m 0,0 24.79749,14.2759 m 0,0 -0.008,28.6394 m 0,0 11.31742,6.5338"
       style="fill:none" />
    <path
       sodipodi:nodetypes="cccccccccccc"
       inkscape:connector-curvature="0"
       id="path7150"
       d="m 212.61832,1323.9761 0,-54.562 m 0,0 -36.10657,-20.843 m 0,0 0,25.96 m 0,0 24.79749,14.2718 m 0,0 -0.008,28.6394 m 0,0 11.31742,6.5338"
       style="fill:none" />
    <path
       sodipodi:nodetypes="cccccccc"
       inkscape:connector-curvature="0"
       id="path7152"
       d="m 201.31757,1231.5199 -22.40566,12.9342 m 0,0 33.70641,19.468 m 0,0 0,-25.8767 m 0,0 -11.30075,-6.5255"
       style="fill:none" />
    <path
       sodipodi:nodetypes="cccccccc"
       inkscape:connector-curvature="0"
       id="path7154"
       d="m 201.31757,1412.9945 -22.40566,12.9425 m 0,0 33.70641,19.4597 m 0,0 0,-25.8767 m 0,0 -11.30075,-6.5255"
       style="fill:none" />
    <path
       transform="translate(0,552.36218)"
       style="fill:none;stroke:none"
       d="m 422.27687,296.72751 -0.39756,7.49219 m 0,0 -1.16688,7.27577 m 0,0 -1.89748,7.02251 m 0,0 -2.58939,6.73242 m 0,0 -3.24259,6.4055 m 0,0 -3.85708,6.04173 m 0,0 -4.43286,5.64115 m 0,0 -4.96994,5.20372 m 0,0 -5.46832,4.72946 m 0,0 -5.92798,4.21837 m 0,0 -6.34894,3.67045 m 0,0 -6.7312,3.08568 m 0,0 -7.07475,2.4641 m 0,0 -7.37958,1.80567 m 0,0 -7.64573,1.11042 m 0,0 -7.87315,0.37832 m 0,0 -7.87315,-0.37832 m 0,0 -7.64573,-1.11042 m 0,0 -7.37959,-1.80567 m 0,0 -7.07474,-2.4641 m 0,0 -6.7312,-3.08568 m 0,0 -6.34894,-3.67045 m 0,0 -5.92799,-4.21837 m 0,0 -5.46831,-4.72946 m 0,0 -4.96995,-5.20372 m 0,0 -4.43286,-5.64115 m 0,0 -3.85708,-6.04173 m 0,0 -3.24259,-6.4055 m 0,0 -2.58939,-6.73242 m 0,0 -1.89748,-7.02251 m 0,0 -1.16688,-7.27577 m 0,0 -0.39756,-7.49219 m 0,0 0.39756,-7.49219 m 0,0 1.16688,-7.27577 m 0,0 1.89748,-7.02251 m 0,0 2.58939,-6.73242 m 0,0 3.24259,-6.4055 m 0,0 3.85708,-6.04173 m 0,0 4.43286,-5.64115 m 0,0 4.96995,-5.20372 m 0,0 5.46831,-4.72946 m 0,0 5.92799,-4.21837 m 0,0 6.34894,-3.67045 m 0,0 6.7312,-3.08568 m 0,0 7.07474,-2.4641 m 0,0 7.37959,-1.80567 m 0,0 7.64573,-1.11042 m 0,0 7.87315,-0.37832 m 0,0 7.87315,0.37832 m 0,0 7.64573,1.11042 m 0,0 7.37958,1.80567 m 0,0 7.07475,2.4641 m 0,0 6.7312,3.08568 m 0,0 6.34894,3.67045 m 0,0 5.92798,4.21837 m 0,0 5.46832,4.72946 m 0,0 4.96994,5.20372 m 0,0 4.43286,5.64115 m 0,0 3.85708,6.04173 m 0,0 3.24259,6.4055 m 0,0 2.58939,6.73242 m 0,0 1.89748,7.02251 m 0,0 1.16688,7.27577 m 0,0 0.39756,7.49219"
       id="path3097"
       inkscape:connector-curvature="0"
       sodipodi:nodetypes="cccccccccccccccccccccccccccccccccccccccccccccccccccccccccccccccccccccccccccccccccccccccccccccccccccccccccccccccccccccccccccccccc" />
  </g>
</svg>
